<svg width="96" height="32" viewBox="0 0 96 32" fill="none" xmlns="http://www.w3.org/2000/svg">
<rect x="0.5" y="0.5" width="95" height="31" rx="3.5" fill="white" stroke="#D9D9D9"/>
<path d="M30.7312 20H27.435V9.81818H30.8356C31.8332 9.81818 32.69 10.022 33.4059 10.4297C34.1218 10.834 34.6703 11.4157 35.0515 12.1747C35.436 12.9304 35.6282 13.8369 35.6282 14.8942C35.6282 15.9548 35.4343 16.8662 35.0465 17.6286C34.6621 18.3909 34.1052 18.9775 33.3761 19.3885C32.6469 19.7962 31.7653 20 30.7312 20ZM28.9712 18.6577H30.6467C31.4222 18.6577 32.0669 18.5118 32.5806 18.2202C33.0943 17.9252 33.4788 17.4993 33.734 16.9425C33.9892 16.3823 34.1168 15.6996 34.1168 14.8942C34.1168 14.0954 33.9892 13.4176 33.734 12.8608C33.4821 12.304 33.1059 11.8814 32.6055 11.593C32.105 11.3047 31.4835 11.1605 30.7411 11.1605H28.9712V18.6577ZM40.7104 20.1541C39.958 20.1541 39.3101 19.9934 38.7665 19.6719C38.2263 19.3471 37.8087 18.8913 37.5137 18.3047C37.222 17.7147 37.0762 17.0237 37.0762 16.2315C37.0762 15.4493 37.222 14.7599 37.5137 14.1634C37.8087 13.5668 38.2196 13.1011 38.7466 12.7663C39.2769 12.4316 39.8967 12.2642 40.606 12.2642C41.0369 12.2642 41.4545 12.3355 41.8588 12.478C42.2632 12.6205 42.6261 12.8442 42.9476 13.1491C43.2691 13.4541 43.5227 13.8501 43.7083 14.3374C43.8939 14.8213 43.9867 15.4096 43.9867 16.1023V16.6293H37.9164V15.5156H42.53C42.53 15.1245 42.4505 14.7782 42.2914 14.4766C42.1323 14.1716 41.9086 13.9313 41.6202 13.7557C41.3352 13.58 41.0004 13.4922 40.6159 13.4922C40.1983 13.4922 39.8337 13.5949 39.5222 13.8004C39.214 14.0026 38.9753 14.2678 38.8063 14.5959C38.6406 14.9207 38.5577 15.2737 38.5577 15.6548V16.5249C38.5577 17.0353 38.6472 17.4695 38.8262 17.8274C39.0085 18.1854 39.262 18.4588 39.5868 18.6477C39.9116 18.8333 40.2911 18.9261 40.7253 18.9261C41.007 18.9261 41.2639 18.8864 41.4959 18.8068C41.7279 18.724 41.9284 18.6013 42.0975 18.4389C42.2665 18.2765 42.3958 18.076 42.4853 17.8374L43.8922 18.0909C43.7795 18.5052 43.5774 18.8681 43.2857 19.1797C42.9973 19.4879 42.6344 19.7282 42.1969 19.9006C41.7627 20.0696 41.2672 20.1541 40.7104 20.1541ZM47.1225 9.81818V20H45.636V9.81818H47.1225ZM52.4135 20.1541C51.6612 20.1541 51.0132 19.9934 50.4696 19.6719C49.9294 19.3471 49.5118 18.8913 49.2168 18.3047C48.9251 17.7147 48.7793 17.0237 48.7793 16.2315C48.7793 15.4493 48.9251 14.7599 49.2168 14.1634C49.5118 13.5668 49.9228 13.1011 50.4498 12.7663C50.9801 12.4316 51.5998 12.2642 52.3091 12.2642C52.74 12.2642 53.1576 12.3355 53.562 12.478C53.9663 12.6205 54.3292 12.8442 54.6507 13.1491C54.9722 13.4541 55.2258 13.8501 55.4114 14.3374C55.597 14.8213 55.6898 15.4096 55.6898 16.1023V16.6293H49.6195V15.5156H54.2331C54.2331 15.1245 54.1536 14.7782 53.9945 14.4766C53.8354 14.1716 53.6117 13.9313 53.3233 13.7557C53.0383 13.58 52.7035 13.4922 52.3191 13.4922C51.9015 13.4922 51.5369 13.5949 51.2253 13.8004C50.9171 14.0026 50.6784 14.2678 50.5094 14.5959C50.3437 14.9207 50.2608 15.2737 50.2608 15.6548V16.5249C50.2608 17.0353 50.3503 17.4695 50.5293 17.8274C50.7116 18.1854 50.9651 18.4588 51.29 18.6477C51.6148 18.8333 51.9943 18.9261 52.4284 18.9261C52.7102 18.9261 52.967 18.8864 53.199 18.8068C53.431 18.724 53.6316 18.6013 53.8006 18.4389C53.9696 18.2765 54.0989 18.076 54.1884 17.8374L55.5953 18.0909C55.4827 18.5052 55.2805 18.8681 54.9888 19.1797C54.7005 19.4879 54.3375 19.7282 53.9 19.9006C53.4658 20.0696 52.9703 20.1541 52.4135 20.1541ZM60.9038 12.3636V13.5568H56.7326V12.3636H60.9038ZM57.8512 10.5341H59.3377V17.7578C59.3377 18.0462 59.3808 18.2633 59.467 18.4091C59.5531 18.5516 59.6642 18.6494 59.8001 18.7024C59.9393 18.7521 60.0901 18.777 60.2525 18.777C60.3718 18.777 60.4762 18.7687 60.5657 18.7521C60.6552 18.7356 60.7248 18.7223 60.7745 18.7124L61.043 19.9403C60.9568 19.9735 60.8342 20.0066 60.6751 20.0398C60.516 20.0762 60.3171 20.0961 60.0785 20.0994C59.6874 20.1061 59.3228 20.0365 58.9847 19.8906C58.6467 19.7448 58.3732 19.5194 58.1644 19.2145C57.9556 18.9096 57.8512 18.5268 57.8512 18.0661V10.5341ZM65.7573 20.1541C65.0049 20.1541 64.3569 19.9934 63.8134 19.6719C63.2731 19.3471 62.8555 18.8913 62.5605 18.3047C62.2689 17.7147 62.123 17.0237 62.123 16.2315C62.123 15.4493 62.2689 14.7599 62.5605 14.1634C62.8555 13.5668 63.2665 13.1011 63.7935 12.7663C64.3238 12.4316 64.9436 12.2642 65.6529 12.2642C66.0837 12.2642 66.5014 12.3355 66.9057 12.478C67.3101 12.6205 67.673 12.8442 67.9945 13.1491C68.316 13.4541 68.5695 13.8501 68.7551 14.3374C68.9408 14.8213 69.0336 15.4096 69.0336 16.1023V16.6293H62.9632V15.5156H67.5769C67.5769 15.1245 67.4973 14.7782 67.3382 14.4766C67.1792 14.1716 66.9554 13.9313 66.6671 13.7557C66.382 13.58 66.0473 13.4922 65.6628 13.4922C65.2452 13.4922 64.8806 13.5949 64.5691 13.8004C64.2608 14.0026 64.0222 14.2678 63.8532 14.5959C63.6874 14.9207 63.6046 15.2737 63.6046 15.6548V16.5249C63.6046 17.0353 63.6941 17.4695 63.873 17.8274C64.0553 18.1854 64.3089 18.4588 64.6337 18.6477C64.9585 18.8333 65.338 18.9261 65.7722 18.9261C66.0539 18.9261 66.3108 18.8864 66.5428 18.8068C66.7748 18.724 66.9753 18.6013 67.1444 18.4389C67.3134 18.2765 67.4426 18.076 67.5321 17.8374L68.9391 18.0909C68.8264 18.5052 68.6242 18.8681 68.3326 19.1797C68.0442 19.4879 67.6813 19.7282 67.2438 19.9006C66.8096 20.0696 66.3141 20.1541 65.7573 20.1541Z" fill="#212121"/>
</svg>
