<svg width="60" height="60" viewBox="0 0 60 60" fill="none" xmlns="http://www.w3.org/2000/svg">
<path d="M11.9907 53H8.54039V42.8182H12.0603C13.0712 42.8182 13.9395 43.022 14.6654 43.4297C15.3946 43.834 15.9547 44.4157 16.3458 45.1747C16.7369 45.9337 16.9324 46.8419 16.9324 47.8991C16.9324 48.9598 16.7352 49.8712 16.3408 50.6335C15.9497 51.3958 15.3846 51.9808 14.6455 52.3885C13.9097 52.7962 13.0248 53 11.9907 53ZM10.3849 51.4041H11.9012C12.6105 51.4041 13.2021 51.2749 13.676 51.0163C14.15 50.7545 14.5063 50.3651 14.7449 49.848C14.9836 49.3277 15.1029 48.678 15.1029 47.8991C15.1029 47.1203 14.9836 46.474 14.7449 45.9602C14.5063 45.4432 14.1533 45.0571 13.686 44.8018C13.222 44.5433 12.6453 44.4141 11.9559 44.4141H10.3849V51.4041Z" fill="black"/>
<path d="M21.9861 53.1491C21.2204 53.1491 20.5592 52.9901 20.0024 52.6719C19.4489 52.3504 19.023 51.8963 18.7247 51.3097C18.4264 50.7197 18.2773 50.0253 18.2773 49.2266C18.2773 48.4411 18.4264 47.7517 18.7247 47.1584C19.0263 46.5618 19.4472 46.0978 19.9875 45.7663C20.5277 45.4316 21.1624 45.2642 21.8916 45.2642C22.3622 45.2642 22.8064 45.3404 23.224 45.4929C23.6449 45.642 24.0161 45.8741 24.3376 46.1889C24.6624 46.5038 24.9176 46.9048 25.1033 47.392C25.2889 47.8759 25.3817 48.4527 25.3817 49.1222V49.674L20.0621 49.6293L20.0657 48.4609H23.6565C23.6532 48.1162 23.5786 47.8097 23.4328 47.5412C23.287 47.2694 23.0831 47.0556 22.8213 46.8999C22.5628 46.7441 22.2612 46.6662 21.9165 46.6662C21.5486 46.6662 21.2254 46.7557 20.947 46.9347C20.6686 47.1103 20.4515 47.3423 20.2957 47.6307C20.1433 47.9157 20.0654 48.2289 20.0621 48.5703V49.6293C20.0621 50.0734 20.1433 50.4545 20.3057 50.7727C20.4681 51.0876 20.6951 51.3295 20.9868 51.4986C21.2784 51.6643 21.6198 51.7472 22.0109 51.7472C22.2728 51.7472 22.5097 51.7107 22.7219 51.6378C22.934 51.5616 23.1179 51.4505 23.2737 51.3047C23.4295 51.1589 23.5471 50.9782 23.6267 50.7628L25.3071 50.9517C25.201 51.3958 24.9988 51.7836 24.7006 52.1151C24.4056 52.4432 24.0277 52.6984 23.567 52.8807C23.1063 53.0597 22.5793 53.1491 21.9861 53.1491Z" fill="black"/>
<path d="M28.7039 42.8182V53H26.9042V42.8182H28.7039Z" fill="black"/>
<path d="M33.9353 53.1491C33.1697 53.1491 32.5084 52.9901 31.9516 52.6719C31.3981 52.3504 30.9722 51.8963 30.6739 51.3097C30.3756 50.7197 30.2265 50.0253 30.2265 49.2266C30.2265 48.4411 30.3756 47.7517 30.6739 47.1584C30.9755 46.5618 31.3965 46.0978 31.9367 45.7663C32.4769 45.4316 33.1117 45.2642 33.8408 45.2642C34.3115 45.2642 34.7556 45.3404 35.1732 45.4929C35.5941 45.642 35.9653 45.8741 36.2868 46.1889C36.6117 46.5038 36.8669 46.9048 37.0525 47.392C37.2381 47.8759 37.3309 48.4527 37.3309 49.1222V49.674L32.0113 49.6293L31.9367 48.4609H35.6057C35.6024 48.1162 35.5278 47.8097 35.382 47.5412C35.2362 47.2694 35.0323 47.0556 34.7705 46.8999C34.512 46.7441 34.2104 46.6662 33.8657 46.6662C33.4978 46.6662 33.1746 46.7557 32.8962 46.9347C32.6178 47.1103 32.4007 47.3423 32.2449 47.6307C32.0925 47.9157 31.94 48.1196 31.9367 48.4609L32.0113 49.6293C32.0113 50.0734 32.0925 50.4545 32.2549 50.7727C32.4173 51.0876 32.6443 51.3295 32.936 51.4986C33.2277 51.6643 33.569 51.7472 33.9601 51.7472C34.222 51.7472 34.459 51.7107 34.6711 51.6378C34.8832 51.5616 35.0671 51.4505 35.2229 51.3047C35.3787 51.1589 35.4964 50.9782 35.5759 50.7628L37.2563 50.9517C37.1502 51.3958 36.9481 51.7836 36.6498 52.1151C36.3548 52.4432 35.9769 52.6984 35.5162 52.8807C35.0555 53.0597 34.5286 53.1491 33.9353 53.1491Z" fill="black"/>
<path d="M42.6666 45.3636V46.7557H41.7268H41.1602V45.3636L39.3605 46.7557H38.8731H38.2767V45.3636H38.8731H39.3605V46.7557L41.1602 45.3636H42.6666ZM39.3605 43.5341H41.1602V50.7031C41.1602 50.9451 41.1967 51.1307 41.2696 51.2599C41.3459 51.3859 41.4453 51.4721 41.5679 51.5185C41.6905 51.5649 41.8264 51.5881 41.9756 51.5881C42.0883 51.5881 42.191 51.5798 42.2838 51.5632C42.3799 51.5466 42.4529 51.5317 42.5026 51.5185L42.8058 52.9254C42.7097 52.9586 42.5722 52.995 42.3932 53.0348C42.2175 53.0746 42.0021 53.0978 41.7469 53.1044C41.2961 53.1177 40.8901 53.0497 40.5289 52.9006C40.1676 52.7481 39.8809 52.5128 39.6688 52.1946C39.46 51.8764 39.3572 51.4787 39.3605 51.0014V43.5341Z" fill="black"/>
<path d="M47.4704 53.1491C46.7048 53.1491 46.0436 52.9901 45.4868 52.6719C44.9333 52.3504 44.5074 51.8963 44.2091 51.3097C43.9108 50.7197 43.7616 50.0253 43.7616 49.2266C43.7616 48.4411 43.9108 47.7517 44.2091 47.1584C44.5107 46.5618 44.9316 46.0978 45.4719 45.7663C46.0121 45.4316 46.6468 45.2642 47.376 45.2642C47.8466 45.2642 48.2907 45.3404 48.7084 45.4929C49.1293 45.642 49.5005 45.8741 49.822 46.1889C50.1468 46.5038 50.402 46.9048 50.5876 47.392C50.7732 47.8759 50.866 48.4527 50.866 49.1222V49.674L45.5464 49.6293V48.4609H49.1409C49.1376 48.1162 49.063 47.8097 48.9172 47.5412C48.7713 47.2694 48.5675 47.0556 48.3057 46.8999C48.0471 46.7441 47.7455 46.6662 47.4008 46.6662C47.0329 46.6662 46.7098 46.7557 46.4314 46.9347C46.153 47.1103 45.9359 47.3423 45.7801 47.6307C45.6276 47.9157 45.5497 48.1196 45.5464 48.4609V49.6293C45.5464 50.0734 45.6276 50.4545 45.79 50.7727C45.9524 51.0876 46.1795 51.3295 46.4711 51.4986C46.7628 51.6643 47.1042 51.7472 47.4953 51.7472C47.7571 51.7472 47.9941 51.7107 48.2062 51.6378C48.4184 51.5616 48.6023 51.4505 48.7581 51.3047C48.9139 51.1589 49.0315 50.9782 49.1111 50.7628L50.7915 50.9517C50.6854 51.3958 50.4832 51.7836 50.1849 52.1151C49.8899 52.4432 49.5121 52.6984 49.0514 52.8807C48.5907 53.0597 48.0637 53.1491 47.4704 53.1491Z" fill="black"/>
<path d="M40.8312 18.825C39.7829 12.3563 35.1117 7.5 29.5 7.5C25.0446 7.5 21.175 10.575 19.2479 15.075C14.6075 15.675 11 20.4563 11 26.25C11 32.4562 15.1471 37.5 20.25 37.5H40.2917C44.5467 37.5 48 33.3 48 28.125C48 23.175 44.8396 19.1625 40.8312 18.825ZM32.5833 24.375V31.875H26.4167V24.375H21.7917L28.9604 15.6563C29.2687 15.2813 29.7467 15.2813 30.055 15.6563L37.2083 24.375H32.5833Z" fill="#323232"/>
</svg>
