<svg width="96" height="32" viewBox="0 0 96 32" fill="none" xmlns="http://www.w3.org/2000/svg">
<rect width="96" height="32" rx="4" fill="#0078D4"/>
<path d="M28.5269 9.81818V20H26.9907V9.81818H28.5269ZM30.6448 20V12.3636H32.0716V13.6065H32.1661C32.3252 13.1856 32.5854 12.8575 32.9466 12.6222C33.3079 12.3835 33.7404 12.2642 34.2442 12.2642C34.7546 12.2642 35.1822 12.3835 35.5269 12.6222C35.8749 12.8608 36.1318 13.1889 36.2975 13.6065H36.377C36.5593 13.1989 36.8493 12.8741 37.2471 12.6321C37.6448 12.3868 38.1188 12.2642 38.6689 12.2642C39.3617 12.2642 39.9268 12.4813 40.3643 12.9155C40.8051 13.3497 41.0255 14.0043 41.0255 14.8793V20H39.539V15.0185C39.539 14.5014 39.3981 14.1269 39.1164 13.8949C38.8347 13.6629 38.4983 13.5469 38.1072 13.5469C37.6233 13.5469 37.2471 13.696 36.9786 13.9943C36.7101 14.2893 36.5759 14.6688 36.5759 15.1328V20H35.0944V14.924C35.0944 14.5097 34.9651 14.1766 34.7066 13.9247C34.4481 13.6728 34.1117 13.5469 33.6974 13.5469C33.4156 13.5469 33.1555 13.6214 32.9168 13.7706C32.6815 13.9164 32.4909 14.1203 32.3451 14.3821C32.2026 14.6439 32.1313 14.9472 32.1313 15.2919V20H30.6448ZM43.0178 22.8636V12.3636H44.4695V13.6016H44.5938C44.68 13.4425 44.8043 13.2585 44.9667 13.0497C45.1291 12.8409 45.3545 12.6586 45.6428 12.5028C45.9312 12.3438 46.3124 12.2642 46.7863 12.2642C47.4028 12.2642 47.953 12.42 48.4369 12.7315C48.9208 13.0431 49.3003 13.4922 49.5754 14.0788C49.8538 14.6655 49.993 15.3714 49.993 16.1967C49.993 17.022 49.8554 17.7296 49.5803 18.3196C49.3053 18.9062 48.9274 19.3587 48.4468 19.6768C47.9662 19.9917 47.4177 20.1491 46.8012 20.1491C46.3372 20.1491 45.9577 20.0713 45.6627 19.9155C45.3711 19.7597 45.1424 19.5774 44.9767 19.3686C44.8109 19.1598 44.6833 18.9742 44.5938 18.8118H44.5044V22.8636H43.0178ZM44.4745 16.1818C44.4745 16.7187 44.5524 17.1894 44.7082 17.5938C44.864 17.9981 45.0893 18.3146 45.3843 18.5433C45.6793 18.7687 46.0406 18.8814 46.4681 18.8814C46.9123 18.8814 47.2835 18.7637 47.5818 18.5284C47.8801 18.2898 48.1054 17.9666 48.2579 17.5589C48.4137 17.1513 48.4916 16.6922 48.4916 16.1818C48.4916 15.678 48.4153 15.2256 48.2629 14.8246C48.1137 14.4235 47.8883 14.107 47.5867 13.875C47.2884 13.643 46.9156 13.527 46.4681 13.527C46.0373 13.527 45.6727 13.638 45.3744 13.8601C45.0794 14.0821 44.8557 14.392 44.7032 14.7898C44.5508 15.1875 44.4745 15.6515 44.4745 16.1818ZM54.8751 20.1541C54.1592 20.1541 53.5344 19.9901 53.0008 19.6619C52.4672 19.3338 52.0529 18.8748 51.7579 18.2848C51.4629 17.6948 51.3154 17.0054 51.3154 16.2166C51.3154 15.4245 51.4629 14.7318 51.7579 14.1385C52.0529 13.5452 52.4672 13.0845 53.0008 12.7564C53.5344 12.4283 54.1592 12.2642 54.8751 12.2642C55.591 12.2642 56.2158 12.4283 56.7494 12.7564C57.283 13.0845 57.6973 13.5452 57.9923 14.1385C58.2873 14.7318 58.4347 15.4245 58.4347 16.2166C58.4347 17.0054 58.2873 17.6948 57.9923 18.2848C57.6973 18.8748 57.283 19.3338 56.7494 19.6619C56.2158 19.9901 55.591 20.1541 54.8751 20.1541ZM54.8801 18.9062C55.3441 18.9062 55.7285 18.7836 56.0335 18.5384C56.3384 18.2931 56.5638 17.9666 56.7096 17.5589C56.8588 17.1513 56.9333 16.7022 56.9333 16.2116C56.9333 15.7244 56.8588 15.277 56.7096 14.8693C56.5638 14.4583 56.3384 14.1286 56.0335 13.88C55.7285 13.6314 55.3441 13.5071 54.8801 13.5071C54.4127 13.5071 54.0249 13.6314 53.7167 13.88C53.4118 14.1286 53.1847 14.4583 53.0356 14.8693C52.8898 15.277 52.8169 15.7244 52.8169 16.2116C52.8169 16.7022 52.8898 17.1513 53.0356 17.5589C53.1847 17.9666 53.4118 18.2931 53.7167 18.5384C54.0249 18.7836 54.4127 18.9062 54.8801 18.9062ZM60.094 20V12.3636H61.5308V13.5767H61.6104C61.7496 13.1657 61.9948 12.8426 62.3461 12.6072C62.7008 12.3686 63.1018 12.2493 63.5493 12.2493C63.6421 12.2493 63.7515 12.2526 63.8774 12.2592C64.0067 12.2659 64.1077 12.2741 64.1807 12.2841V13.706C64.121 13.6894 64.0149 13.6712 63.8625 13.6513C63.71 13.6281 63.5576 13.6165 63.4051 13.6165C63.0538 13.6165 62.7406 13.6911 62.4655 13.8402C62.1937 13.986 61.9782 14.1899 61.8192 14.4517C61.6601 14.7102 61.5805 15.0052 61.5805 15.3366V20H60.094ZM69.4829 12.3636V13.5568H65.3117V12.3636H69.4829ZM66.4303 10.5341H67.9168V17.7578C67.9168 18.0462 67.9599 18.2633 68.0461 18.4091C68.1323 18.5516 68.2433 18.6494 68.3792 18.7024C68.5184 18.7521 68.6692 18.777 68.8316 18.777C68.9509 18.777 69.0553 18.7687 69.1448 18.7521C69.2343 18.7356 69.3039 18.7223 69.3536 18.7124L69.6221 19.9403C69.5359 19.9735 69.4133 20.0066 69.2542 20.0398C69.0951 20.0762 68.8962 20.0961 68.6576 20.0994C68.2665 20.1061 67.9019 20.0365 67.5638 19.8906C67.2258 19.7448 66.9523 19.5194 66.7435 19.2145C66.5347 18.9096 66.4303 18.5268 66.4303 18.0661V10.5341Z" fill="white"/>
</svg>
