<svg width="60" height="60" viewBox="0 0 60 60" fill="none" xmlns="http://www.w3.org/2000/svg">
<path d="M5.07747 40.9697H7.2271L10.1059 47.9962H10.2195L13.0983 40.9697H15.2479V50.6667H13.5623V44.0047H13.4724L10.7924 50.6383H9.53297L6.85304 43.9905H6.76308V50.6667H5.07747V40.9697Z" fill="#323232"/>
<path d="M19.1779 50.8134C18.717 50.8134 18.3019 50.7314 17.9326 50.5672C17.5664 50.3999 17.276 50.1537 17.0614 49.8286C16.8499 49.5035 16.7441 49.1026 16.7441 48.6259C16.7441 48.2156 16.8199 47.8763 16.9714 47.608C17.1229 47.3396 17.3297 47.125 17.5917 46.964C17.8537 46.803 18.1488 46.6815 18.4771 46.5994C18.8085 46.5142 19.151 46.4527 19.5046 46.4148C19.9307 46.3706 20.2763 46.3311 20.5415 46.2964C20.8066 46.2585 20.9992 46.2017 21.1191 46.1259C21.2422 46.047 21.3038 45.9255 21.3038 45.7614V45.733C21.3038 45.3763 21.1981 45.1001 20.9866 44.9044C20.7751 44.7087 20.4705 44.6108 20.0727 44.6108C19.6529 44.6108 19.3199 44.7023 19.0737 44.8854C18.8306 45.0685 18.6665 45.2847 18.5813 45.5341L16.9809 45.3068C17.1071 44.8649 17.3155 44.4956 17.6059 44.1989C17.8963 43.899 18.2514 43.6749 18.6712 43.5265C19.091 43.375 19.5551 43.2992 20.0633 43.2992C20.4136 43.2992 20.7625 43.3403 21.1097 43.4223C21.4569 43.5044 21.7741 43.6402 22.0614 43.8295C22.3486 44.0158 22.5791 44.2699 22.7527 44.5919C22.9294 44.9138 23.0178 45.3163 23.0178 45.7992V50.6667H21.3701V49.6676H21.3133C21.2091 49.8696 21.0623 50.059 20.8729 50.2358C20.6867 50.4094 20.4515 50.5499 20.1674 50.6572C19.8865 50.7614 19.5566 50.8134 19.1779 50.8134ZM19.6229 49.554C19.967 49.554 20.2653 49.4861 20.5178 49.3504C20.7703 49.2115 20.9645 49.0284 21.1002 48.8011C21.2391 48.5739 21.3085 48.3261 21.3085 48.0578V47.2008C21.2549 47.2449 21.1633 47.286 21.0339 47.3239C20.9077 47.3617 20.7656 47.3949 20.6078 47.4233C20.4499 47.4517 20.2937 47.477 20.139 47.4991C19.9844 47.5211 19.8502 47.5401 19.7366 47.5559C19.4809 47.5906 19.252 47.6474 19.05 47.7263C18.848 47.8052 18.6886 47.9157 18.5718 48.0578C18.455 48.1967 18.3966 48.3766 18.3966 48.5975C18.3966 48.9132 18.5118 49.1515 18.7422 49.3125C18.9727 49.4735 19.2662 49.554 19.6229 49.554Z" fill="#323232"/>
<path d="M26.4553 46.4053V50.6667H24.7413V43.3939H26.3796V44.6297H26.4648C26.6321 44.2225 26.8988 43.899 27.265 43.6591C27.6343 43.4192 28.0904 43.2992 28.6333 43.2992C29.1352 43.2992 29.5724 43.4066 29.9449 43.6212C30.3205 43.8359 30.6109 44.1468 30.8161 44.554C31.0244 44.9612 31.127 45.4552 31.1239 46.036V50.6667H29.4099V46.3011C29.4099 45.815 29.2836 45.4347 29.0311 45.16C28.7817 44.8854 28.4361 44.7481 27.9941 44.7481C27.6943 44.7481 27.4275 44.8144 27.194 44.947C26.9635 45.0764 26.782 45.2642 26.6494 45.5104C26.52 45.7566 26.4553 46.0549 26.4553 46.4053Z" fill="#323232"/>
<path d="M34.9591 50.8134C34.4982 50.8134 34.0832 50.7314 33.7138 50.5672C33.3477 50.3999 33.0573 50.1537 32.8426 49.8286C32.6311 49.5035 32.5254 49.1026 32.5254 48.6259C32.5254 48.2156 32.6011 47.8763 32.7527 47.608C32.9042 47.3396 33.1109 47.125 33.3729 46.964C33.6349 46.803 33.9301 46.6815 34.2583 46.5994C34.5898 46.5142 34.9323 46.4527 35.2858 46.4148C35.7119 46.3706 36.0576 46.3311 36.3227 46.2964C36.5879 46.2585 36.7804 46.2017 36.9004 46.1259C37.0235 46.047 37.0851 45.9255 37.0851 45.7614V45.733C37.0851 45.3763 36.9793 45.1001 36.7678 44.9044C36.5563 44.7087 36.2517 44.6108 35.854 44.6108C35.4342 44.6108 35.1012 44.7023 34.8549 44.8854C34.6119 45.0685 34.4477 45.2847 34.3625 45.5341L32.7621 45.3068C32.8884 44.8649 33.0967 44.4956 33.3871 44.1989C33.6775 43.899 34.0327 43.6749 34.4525 43.5265C34.8723 43.375 35.3363 43.2992 35.8445 43.2992C36.1949 43.2992 36.5437 43.3403 36.8909 43.4223C37.2381 43.5044 37.5554 43.6402 37.8426 43.8295C38.1299 44.0158 38.3603 44.2699 38.5339 44.5919C38.7107 44.9138 38.7991 45.3163 38.7991 45.7992V50.6667H37.1513V49.6676H37.0945C36.9904 49.8696 36.8436 50.059 36.6542 50.2358C36.4679 50.4094 36.2328 50.5499 35.9487 50.6572C35.6678 50.7614 35.3379 50.8134 34.9591 50.8134ZM35.4042 49.554C35.7482 49.554 36.0465 49.4861 36.2991 49.3504C36.5516 49.2115 36.7457 49.0284 36.8815 48.8011C37.0203 48.5739 37.0898 48.3261 37.0898 48.0578V47.2008C37.0361 47.2449 36.9446 47.286 36.8152 47.3239C36.6889 47.3617 36.5469 47.3949 36.389 47.4233C36.2312 47.4517 36.075 47.477 35.9203 47.4991C35.7656 47.5211 35.6315 47.5401 35.5178 47.5559C35.2621 47.5906 35.0333 47.6474 34.8313 47.7263C34.6292 47.8052 34.4698 47.9157 34.353 48.0578C34.2362 48.1967 34.1779 48.3766 34.1779 48.5975C34.1779 48.9132 34.2931 49.1515 34.5235 49.3125C34.7539 49.4735 35.0475 49.554 35.4042 49.554Z" fill="#323232"/>
<path d="M43.6854 53.5455C43.0699 53.5455 42.5412 53.4618 42.0993 53.2945C41.6573 53.1304 41.3022 52.9094 41.0339 52.6316C40.7656 52.3539 40.5794 52.0461 40.4752 51.7083L42.0188 51.3343C42.0882 51.4763 42.1892 51.6168 42.3218 51.7557C42.4544 51.8977 42.6327 52.0145 42.8568 52.1061C43.0841 52.2008 43.3698 52.2481 43.7138 52.2481C44.1999 52.2481 44.6024 52.1297 44.9212 51.893C45.24 51.6594 45.3994 51.2743 45.3994 50.7377V49.3598H45.3142C45.2258 49.5366 45.0964 49.7181 44.926 49.9044C44.7587 50.0906 44.5361 50.2468 44.2583 50.3731C43.9837 50.4994 43.6381 50.5625 43.2214 50.5625C42.6627 50.5625 42.1561 50.4315 41.7015 50.1695C41.2501 49.9044 40.8903 49.5098 40.622 48.9858C40.3568 48.4587 40.2243 47.7989 40.2243 47.0066C40.2243 46.208 40.3568 45.5341 40.622 44.9848C40.8903 44.4324 41.2517 44.0142 41.7063 43.7301C42.1608 43.4429 42.6674 43.2992 43.2261 43.2992C43.6523 43.2992 44.0027 43.3718 44.2773 43.517C44.5551 43.6591 44.776 43.8311 44.9402 44.0331C45.1043 44.232 45.229 44.4198 45.3142 44.5966H45.4089V43.3939H47.0993V50.785C47.0993 51.4069 46.9509 51.9214 46.6542 52.3286C46.3575 52.7358 45.9518 53.0404 45.4373 53.2424C44.9228 53.4444 44.3388 53.5455 43.6854 53.5455ZM43.6996 49.2178C44.0626 49.2178 44.372 49.1294 44.6277 48.9527C44.8833 48.7759 45.0775 48.5218 45.2101 48.1903C45.3426 47.8589 45.4089 47.4612 45.4089 46.9972C45.4089 46.5395 45.3426 46.1386 45.2101 45.7945C45.0806 45.4504 44.8881 45.1837 44.6324 44.9943C44.3799 44.8018 44.069 44.7055 43.6996 44.7055C43.3177 44.7055 42.9989 44.8049 42.7432 45.0038C42.4875 45.2026 42.295 45.4757 42.1655 45.8229C42.0361 46.167 41.9714 46.5584 41.9714 46.9972C41.9714 47.4422 42.0361 47.8321 42.1655 48.1667C42.2981 48.4981 42.4922 48.7569 42.7479 48.9432C43.0068 49.1263 43.324 49.2178 43.6996 49.2178Z" fill="#323232"/>
<path d="M52.0756 50.8087C51.3464 50.8087 50.7167 50.6572 50.1864 50.3542C49.6592 50.048 49.2536 49.6155 48.9695 49.0568C48.6854 48.495 48.5434 47.8337 48.5434 47.0729C48.5434 46.3248 48.6854 45.6682 48.9695 45.1032C49.2568 44.535 49.6577 44.0931 50.1722 43.7775C50.6867 43.4586 51.2912 43.2992 51.9856 43.2992C52.4339 43.2992 52.8568 43.3718 53.2546 43.517C53.6554 43.6591 54.009 43.8801 54.3152 44.1799C54.6245 44.4798 54.8676 44.8617 55.0443 45.3258C55.2211 45.7866 55.3095 46.3359 55.3095 46.9735V47.4991H50.2435L50.2467 46.3438H53.6665C53.6633 46.0155 53.5923 45.7235 53.4534 45.4678C53.3145 45.209 53.1204 45.0054 52.871 44.857C52.6248 44.7086 52.3376 44.6345 52.0093 44.6345C51.6589 44.6345 51.3512 44.7197 51.086 44.8902C50.8208 45.0575 50.6141 45.2784 50.4657 45.553C50.3205 45.8245 50.2464 46.1228 50.2432 46.4479V47.4564C50.2432 47.8794 50.3205 48.2424 50.4752 48.5455C50.6299 48.8453 50.8461 49.0758 51.1239 49.2367C51.4017 49.3946 51.7268 49.4735 52.0993 49.4735C52.3486 49.4735 52.5743 49.4388 52.7763 49.3693C52.9784 49.2967 53.1535 49.191 53.3019 49.0521C53.4503 48.9132 53.5623 48.7412 53.6381 48.536L55.2385 48.7159C55.1375 49.1389 54.9449 49.5082 54.6608 49.8239C54.3799 50.1364 54.02 50.3794 53.5813 50.553C53.1425 50.7235 52.6406 50.8087 52.0756 50.8087Z" fill="#323232"/>
<path d="M46.6666 27.6V10.8C46.6666 9.26 45.1666 8 43.3333 8H23.3333C21.4999 8 19.9999 9.26 19.9999 10.8V27.6C19.9999 29.14 21.4999 30.4 23.3333 30.4H43.3333C45.1666 30.4 46.6666 29.14 46.6666 27.6ZM28.9999 22.742L31.7166 25.794L36.0166 21.286C36.3499 20.936 36.9833 20.936 37.3166 21.286L42.2499 26.466C42.6833 26.928 42.2999 27.6 41.5999 27.6H24.9999C24.3166 27.6 23.9166 26.942 24.3333 26.48L27.6666 22.742C27.9999 22.378 28.6666 22.378 28.9999 22.742ZM13.3333 15V33.2C13.3333 34.74 14.8333 36 16.6666 36H38.3333C39.2499 36 39.9999 35.37 39.9999 34.6C39.9999 33.83 39.2499 33.2 38.3333 33.2H18.3333C17.4166 33.2 16.6666 32.57 16.6666 31.8V15C16.6666 14.23 15.9166 13.6 14.9999 13.6C14.0833 13.6 13.3333 14.23 13.3333 15Z" fill="#323232"/>
</svg>
