<svg width="570" height="710" viewBox="0 0 570 710" fill="none" xmlns="http://www.w3.org/2000/svg">
<g clip-path="url(#clip0_32_132269)">
<rect width="570" height="710" fill="white"/>
<path d="M0 80H570V650H0V80Z" fill="#D7EDF9"/>
<rect width="570" height="80" fill="#0078D4"/>
<line x1="192" y1="80" x2="192" y2="650" stroke="white" stroke-width="4"/>
<line x1="382" y1="80" x2="382" y2="649.999" stroke="white" stroke-width="4"/>
<line y1="268" x2="570" y2="268" stroke="white" stroke-width="4"/>
<line y1="457.999" x2="570" y2="457.999" stroke="white" stroke-width="4"/>
<path d="M0 650H570V700C570 705.523 565.523 710 560 710H10C4.47715 710 0 705.523 0 700V650Z" fill="white"/>
<path d="M25.54 23.044L28.466 20.27C30.518 21.98 33.292 24.412 34.584 26.046L31.468 29.2C30.29 27.528 27.592 24.906 25.54 23.044ZM28.694 55.04L27.706 50.86L28.618 49.416L36.066 43.754C36.37 44.97 37.054 46.756 37.548 47.668C30.632 53.064 29.378 54.128 28.694 55.04ZM23.792 31.442H31.278V35.812H23.792V31.442ZM28.694 55.04C28.352 53.976 27.25 52.076 26.49 51.202C27.326 50.632 28.428 49.34 28.428 47.592V31.442H32.798V50.67C32.798 50.67 28.694 53.444 28.694 55.04ZM41.652 41.778H53.356V44.704H41.652V41.778ZM36.788 22.322H58.068V25.59H36.788V22.322ZM37.814 27.11H56.928V30.188H37.814V27.11ZM35.61 31.784H59.284V35.052H35.61V31.784ZM41.576 46.832H53.318V49.872H41.576V46.832ZM38.194 36.534H53.28V39.84H42.412V55.458H38.194V36.534ZM52.33 36.534H56.662V51.05C56.662 53.026 56.282 54.128 54.876 54.736C53.546 55.382 51.646 55.42 48.986 55.42C48.834 54.28 48.302 52.608 47.77 51.544C49.328 51.62 51.152 51.62 51.646 51.582C52.14 51.582 52.33 51.43 52.33 50.974V36.534ZM45.072 19.738H49.594V32.848H45.072V19.738ZM72.508 32.772H96.942V36.686H72.508V32.772ZM77.068 24.488H95.346V28.326H77.068V24.488ZM82.92 19.928H87.442V34.254H82.92V19.928ZM76.498 20.916L80.83 21.828C79.728 25.742 77.752 29.618 75.7 32.05C74.826 31.366 73.002 30.15 71.938 29.618C74.028 27.528 75.624 24.222 76.498 20.916ZM85.846 35.09H90.33V43.374C90.33 44.438 90.406 44.552 91.052 44.552C91.28 44.552 92.306 44.552 92.61 44.552C93.256 44.552 93.408 44.096 93.522 40.6C94.358 41.36 96.258 42.044 97.474 42.348C97.056 47.44 95.916 48.77 93.104 48.77C92.382 48.77 90.938 48.77 90.254 48.77C86.606 48.77 85.846 47.402 85.846 43.412V35.09ZM79.006 34.938H83.566C82.996 41.132 81.514 46.11 74.484 49.036C73.99 47.858 72.736 46.148 71.748 45.274C77.638 43.146 78.55 39.498 79.006 34.938ZM62.134 23.386L65.63 20.84C67.758 22.55 70.38 25.058 71.596 26.844L67.834 29.732C66.77 27.87 64.262 25.248 62.134 23.386ZM70.798 34.406V48.846H66.428V38.624H62.21V34.406H70.798ZM70.38 47.136C71.558 47.136 72.508 48.124 74.446 49.264C76.84 50.746 80.108 50.936 84.06 50.936C87.86 50.936 93.75 50.632 97.436 50.1C96.942 51.316 96.22 53.558 96.182 54.774C93.37 54.964 87.67 55.192 83.946 55.192C79.424 55.192 76.422 54.698 73.876 53.254C72.318 52.304 71.102 51.202 70.266 51.202C68.86 51.202 66.77 53.444 64.718 55.8L61.716 51.848C64.604 49.188 67.948 47.136 70.38 47.136ZM99.45 38.928C102.718 38.206 107.506 36.914 112.142 35.66L112.712 39.764C108.494 41.018 104.01 42.31 100.438 43.298L99.45 38.928ZM99.982 26.882H112.75V31.062H99.982V26.882ZM104.276 19.776H108.722V50.556C108.722 52.684 108.342 53.862 107.164 54.584C105.948 55.306 104.238 55.42 101.73 55.42C101.578 54.242 101.046 52.38 100.514 51.126C101.806 51.202 103.212 51.202 103.668 51.164C104.124 51.164 104.276 51.012 104.276 50.518V19.776ZM113.7 21.258H130.192V25.286H113.7V21.258ZM129.356 21.258H130.116L130.838 21.106L133.574 22.55C130.002 30.34 122.174 35.47 113.966 38.054C113.51 36.952 112.446 35.28 111.61 34.406C119.248 32.468 126.658 27.832 129.356 21.904V21.258ZM119.02 23.272C122.06 28.63 128.254 32.658 135.968 34.292C135.056 35.204 133.802 36.952 133.194 38.092C125.252 35.926 119.134 31.176 115.524 24.488L119.02 23.272ZM114.156 39.194H132.624V43.184H114.156V39.194ZM112.256 45.806H135.056V49.872H112.256V45.806ZM121.224 36.23H125.822V55.458H121.224V36.23ZM138.514 21.6H155.386V25.742H138.514V21.6ZM158.502 32.62H173.436V36.99H158.502V32.62ZM165.494 35.698H170.016V55.458H165.494V35.698ZM156.678 23.12L162.15 24.412C162.112 24.792 161.846 24.982 161.162 25.096V33.722C161.162 39.878 160.288 49.264 154.246 55.382C153.638 54.394 151.928 52.836 150.864 52.304C156.184 46.908 156.678 39.346 156.678 33.684V23.12ZM139.73 28.592H144.062V38.32C144.062 43.45 143.53 50.822 140.566 55.496C139.844 54.698 137.944 53.254 136.994 52.76C139.502 48.656 139.73 42.69 139.73 38.282V28.592ZM169.18 20.118L173.17 23.538C169.104 25.552 163.746 27.11 159.11 28.136C158.844 27.11 158.122 25.438 157.552 24.488C161.808 23.424 166.444 21.752 169.18 20.118ZM142.238 28.592H154.588V41.588H142.238V37.522H150.18V32.696H142.238V28.592ZM176.552 24.336H210.448V28.592H176.552V24.336ZM186.812 38.016H203.342V41.816H186.812V38.016ZM183.43 31.594H202.658V35.584H187.952V55.382H183.43V31.594ZM201.746 31.594H206.192V50.48C206.192 52.722 205.774 53.976 204.216 54.698C202.696 55.382 200.53 55.42 197.452 55.42C197.262 54.166 196.654 52.228 196.046 51.05C198.022 51.164 200.264 51.126 200.91 51.126C201.518 51.126 201.746 50.936 201.746 50.404V31.594ZM188.332 19.7L193.044 20.764C190.384 29.352 185.824 38.092 178.414 43.26C177.768 42.234 176.324 40.6 175.412 39.726C182.176 35.28 186.432 27.11 188.332 19.7ZM186.812 44.286H203.342V48.086H186.812V44.286ZM229.638 19.852L234.122 20.878C232.526 26.882 229.828 32.848 226.788 36.61C225.99 35.812 224.166 34.33 223.14 33.646C226.028 30.378 228.346 25.134 229.638 19.852ZM228.574 36.762L232.982 37.674C231.918 42.5 229.942 47.364 227.814 50.442C226.94 49.72 225.002 48.542 223.938 47.972C226.066 45.312 227.7 40.98 228.574 36.762ZM230.474 26.54H246.054V30.758H228.764L230.474 26.54ZM234.844 28.402H239.366V50.328C239.366 52.532 238.986 53.786 237.618 54.546C236.288 55.268 234.426 55.458 231.994 55.458C231.766 54.128 231.082 52.114 230.436 50.86C232.032 50.936 233.628 50.898 234.16 50.898C234.654 50.898 234.844 50.784 234.844 50.29V28.402ZM240.696 37.75L244.8 36.382C246.776 40.296 248.41 45.35 248.942 48.808L244.572 50.328C244.154 46.908 242.558 41.664 240.696 37.75ZM244.838 26.54H245.446L246.168 26.426L249.36 26.996C248.904 30.112 248.22 33.646 247.726 35.926L243.812 35.242C244.154 33.19 244.572 29.808 244.838 27.148V26.54ZM221.506 19.89L225.8 21.22C223.33 27.718 219.378 34.558 215.236 38.89C214.818 37.788 213.602 35.28 212.804 34.178C216.262 30.72 219.568 25.324 221.506 19.89ZM217.82 30.378L222.152 26.046L222.19 26.084V55.382H217.82V30.378ZM252.058 40.334H286.942V44.02H252.058V40.334ZM252.78 21.068H286.03V25.02H252.78V21.068ZM264.712 36.686L269.196 37.826C266.764 41.854 263.534 46.642 261.216 49.682L256.808 48.352C259.164 45.312 262.508 40.41 264.712 36.686ZM275.732 41.702L280.14 42.842C276.378 51.81 268.55 54.394 254.452 55.496C254.148 54.166 253.464 52.57 252.742 51.582C265.548 51.05 272.692 48.998 275.732 41.702ZM259.43 48.656L261.748 45.388C270.488 47.174 279.95 49.796 285.65 51.886L282.914 55.572C277.404 53.33 268.512 50.594 259.43 48.656ZM262.774 22.626H267.068V35.622H262.774V22.626ZM271.4 22.626H275.694V35.622H271.4V22.626ZM258.784 30.758V34.33H280.254V30.758H258.784ZM254.528 27.186H284.814V37.902H254.528V27.186ZM314.758 23.652H318.254V45.958H314.758V23.652ZM320.23 20.346H324.068V50.708C324.068 52.836 323.65 53.976 322.434 54.622C321.18 55.268 319.28 55.42 316.582 55.382C316.43 54.318 315.898 52.532 315.328 51.392C317.152 51.468 318.9 51.468 319.47 51.468C320.04 51.468 320.23 51.278 320.23 50.67V20.346ZM293.478 21.03H300.28V24.944H293.478V21.03ZM291.958 21.03H295.644V40.182C295.644 45.274 295.302 51.848 292.832 55.686C292.148 55.04 290.514 53.9 289.64 53.482C291.806 49.986 291.958 44.78 291.958 40.182V21.03ZM297.658 21.03H301.344V50.632C301.344 52.38 301.078 53.558 300.052 54.204C299.026 54.888 297.658 55.002 295.644 55.002C295.568 53.938 295.112 52.114 294.618 51.088C295.682 51.164 296.784 51.126 297.164 51.126C297.544 51.126 297.658 50.974 297.658 50.556V21.03ZM304.422 20.992H311.224V24.944H304.422V20.992ZM303.016 20.992H306.664V35.926C306.664 41.74 306.36 50.176 304.27 55.572C303.586 54.964 301.914 54.052 301.002 53.71C302.902 48.694 303.016 41.36 303.016 35.964V20.992ZM308.678 20.992H312.364V50.594C312.364 52.38 312.098 53.52 311.072 54.204C310.046 54.85 308.716 54.964 306.664 54.964C306.588 53.9 306.132 52.114 305.638 51.05C306.74 51.126 307.804 51.126 308.222 51.126C308.564 51.126 308.678 50.974 308.678 50.556V20.992ZM289.868 34.254H313.846V38.396H289.868V34.254ZM344.018 30.72H358.876V34.444H344.018V30.72ZM341.738 37.902H361.65V41.74H341.738V37.902ZM351.314 23.842C349.186 27.11 345.348 31.1 341.282 33.532C340.826 32.43 339.838 30.796 339.078 29.884C343.182 27.604 347.21 23.31 349.148 19.776H353.176C355.874 23.766 359.902 27.642 363.892 29.542C363.018 30.568 362.068 32.202 361.422 33.456C357.698 31.214 353.594 27.186 351.314 23.842ZM349.224 32.696H353.556V50.746C353.556 52.76 353.214 53.938 351.922 54.622C350.706 55.344 349.034 55.458 346.716 55.458C346.564 54.242 345.918 52.38 345.31 51.202C346.716 51.24 348.16 51.24 348.654 51.24C349.11 51.24 349.224 51.126 349.224 50.67V32.696ZM343.22 43.184L347.172 44.172C345.956 47.668 343.828 51.202 341.662 53.406C340.94 52.684 339.382 51.392 338.47 50.784C340.522 48.922 342.232 46.072 343.22 43.184ZM354.81 44.666L358.268 43.032C360.244 45.578 362.372 49.036 363.17 51.392L359.408 53.254C358.686 50.974 356.672 47.364 354.81 44.666ZM329.198 21.372H338.166V25.438H333.188V55.458H329.198V21.372ZM336.76 21.372H337.52L338.166 21.22L341.13 22.892C340.142 26.16 338.888 30.302 337.786 33.266C340.142 36.23 340.598 38.776 340.598 40.98C340.598 43.45 340.104 45.046 338.888 45.882C338.28 46.3 337.558 46.566 336.722 46.68C336.038 46.756 335.126 46.794 334.252 46.794C334.214 45.692 333.872 43.982 333.264 42.88C333.948 42.918 334.442 42.956 334.898 42.918C335.316 42.918 335.696 42.842 335.962 42.614C336.418 42.272 336.608 41.512 336.608 40.448C336.608 38.662 336.114 36.306 333.948 33.76C335.012 30.34 336.228 25.096 336.76 22.664V21.372ZM369.934 25.894H381.6V51.506H369.934V47.478H377.458V29.884H369.934V25.894ZM367.274 25.894H371.416V54.318H367.274V25.894ZM369.744 36.04H379.472V39.992H369.744V36.04ZM372.67 19.7L377.648 20.422C376.774 23.006 375.824 25.704 375.064 27.49L371.416 26.692C371.948 24.716 372.48 21.79 372.67 19.7ZM386.616 25.628H397.712V29.77H386.616V25.628ZM396.154 25.628H400.372C400.372 25.628 400.372 27.11 400.334 27.68C399.84 44.78 399.384 50.822 397.826 52.836C396.762 54.318 395.698 54.736 394.14 54.964C392.696 55.192 390.378 55.154 388.174 55.04C388.098 53.786 387.49 51.848 386.654 50.632C389.124 50.822 391.404 50.86 392.354 50.86C393.114 50.86 393.532 50.708 394.026 50.176C395.242 48.884 395.736 42.348 396.154 26.502V25.628ZM386.73 19.738L391.1 20.764C389.618 26.388 387.148 32.164 384.564 35.812C383.728 35.052 381.866 33.76 380.802 33.152C383.348 29.96 385.514 24.792 386.73 19.738ZM384.868 36.572L388.44 34.558C390.302 37.18 392.81 40.828 393.988 43.07L390.112 45.426C389.086 43.108 386.692 39.384 384.868 36.572ZM405.426 21.182H409.72V45.464H405.426V21.182ZM407.858 21.182H417.586V43.716H407.858V39.65H413.406V25.172H407.858V21.182ZM407.744 30.15H415.61V34.102H407.744V30.15ZM418.726 21.068H435.484V25.058H418.726V21.068ZM434.04 21.068H438.372C438.372 21.068 438.334 22.056 438.296 22.588C437.992 27.832 437.65 30.226 436.776 31.176C436.054 31.974 435.18 32.278 434.116 32.392C433.166 32.506 431.494 32.544 429.746 32.468C429.67 31.328 429.252 29.808 428.644 28.82C430.05 28.934 431.342 28.972 431.95 28.972C432.482 28.972 432.786 28.896 433.09 28.63C433.584 28.098 433.812 26.274 434.04 21.638V21.068ZM424.54 22.284H428.986C428.454 28.022 426.934 31.86 419.79 33.988C419.372 32.962 418.308 31.404 417.396 30.644C423.248 29.124 424.16 26.426 424.54 22.284ZM424.122 37.294V41.36H432.672V37.294H424.122ZM419.866 33.646H437.194V45.008H419.866V33.646ZM414.774 47.288L418.992 46.756C419.486 49.302 419.942 52.57 419.98 54.584L415.496 55.306C415.496 53.254 415.192 49.872 414.774 47.288ZM422.83 47.212L427.124 46.414C428.074 48.884 429.024 52.114 429.366 54.204L424.806 55.154C424.54 53.14 423.704 49.758 422.83 47.212ZM430.696 47.174L434.838 45.578C436.396 48.048 438.41 51.392 439.284 53.52L434.876 55.42C434.116 53.292 432.216 49.758 430.696 47.174ZM408.428 45.882L412.836 47.098C411.582 49.986 409.72 53.368 408.162 55.61L403.754 53.71C405.274 51.848 407.212 48.656 408.428 45.882ZM449.012 29.2H474.662V33.95H449.012V29.2ZM460.754 19.776H465.656V31.138H460.754V19.776ZM446.618 20.536H451.406V33.418C451.406 41.132 450.722 49.53 444.946 55.648C444.186 54.508 442.476 52.722 441.374 51.886C446.086 46.794 446.618 39.764 446.618 33.38V20.536ZM448.898 38.776H470.178V55.42H465.162V43.564H448.898V38.776Z" fill="white"/>
</g>
<defs>
<clipPath id="clip0_32_132269">
<rect width="570" height="710" fill="white"/>
</clipPath>
</defs>
</svg>
