<svg width="60" height="60" viewBox="0 0 60 60" fill="none" xmlns="http://www.w3.org/2000/svg">
<path d="M41.7642 22.5517C41.8275 22.045 41.875 21.5383 41.875 21C41.875 20.4617 41.8275 19.955 41.7642 19.4483L45.105 16.8358C45.4058 16.5983 45.485 16.1708 45.295 15.8225L42.1283 10.3442C41.9383 9.99583 41.5108 9.86917 41.1625 9.99583L37.22 11.5792C36.3967 10.9458 35.51 10.4233 34.5442 10.0275L33.9425 5.83167C33.895 5.45167 33.5625 5.16667 33.1667 5.16667H26.8333C26.4375 5.16667 26.105 5.45167 26.0575 5.83167L25.4558 10.0275C24.49 10.4233 23.6033 10.9617 22.78 11.5792L18.8375 9.99583C18.4733 9.85333 18.0617 9.99583 17.8717 10.3442L14.705 15.8225C14.4992 16.1708 14.5942 16.5983 14.895 16.8358L18.2358 19.4483C18.1725 19.955 18.125 20.4775 18.125 21C18.125 21.5225 18.1725 22.045 18.2358 22.5517L14.895 25.1642C14.5942 25.4017 14.515 25.8292 14.705 26.1775L17.8717 31.6558C18.0617 32.0042 18.4892 32.1308 18.8375 32.0042L22.78 30.4208C23.6033 31.0542 24.49 31.5767 25.4558 31.9725L26.0575 36.1683C26.105 36.5483 26.4375 36.8333 26.8333 36.8333H33.1667C33.5625 36.8333 33.895 36.5483 33.9425 36.1683L34.5442 31.9725C35.51 31.5767 36.3967 31.0383 37.22 30.4208L41.1625 32.0042C41.5267 32.1467 41.9383 32.0042 42.1283 31.6558L45.295 26.1775C45.485 25.8292 45.4058 25.4017 45.105 25.1642L41.7642 22.5517ZM30 26.5417C26.9442 26.5417 24.4583 24.0558 24.4583 21C24.4583 17.9442 26.9442 15.4583 30 15.4583C33.0558 15.4583 35.5417 17.9442 35.5417 21C35.5417 24.0558 33.0558 26.5417 30 26.5417Z" fill="#323232"/>
<path d="M12.0582 44.6172C12.0117 44.183 11.8162 43.8449 11.4715 43.603C11.1301 43.361 10.686 43.2401 10.1391 43.2401C9.75465 43.2401 9.42486 43.2981 9.14977 43.4141C8.87468 43.5301 8.66421 43.6875 8.51838 43.8864C8.37254 44.0852 8.29797 44.3123 8.29466 44.5675C8.29466 44.7796 8.34271 44.9635 8.43883 45.1193C8.53826 45.2751 8.6725 45.4077 8.84153 45.517C9.01056 45.6231 9.19783 45.7126 9.40332 45.7855C9.60881 45.8584 9.81596 45.9197 10.0248 45.9695L10.9793 46.2081C11.3638 46.2976 11.7333 46.4186 12.088 46.571C12.4459 46.7235 12.7658 46.9157 13.0475 47.1477C13.3325 47.3797 13.5579 47.6598 13.7236 47.9879C13.8894 48.3161 13.9722 48.7005 13.9722 49.1413C13.9722 49.7379 13.8197 50.2633 13.5148 50.7173C13.2099 51.1681 12.7691 51.5211 12.1924 51.7763C11.619 52.0282 10.9246 52.1541 10.1093 52.1541C9.31715 52.1541 8.62941 52.0315 8.04608 51.7862C7.46606 51.541 7.01199 51.183 6.68386 50.7124C6.35905 50.2417 6.18339 49.6683 6.15687 48.9922H7.9715C7.99802 49.3468 8.10739 49.6418 8.29963 49.8771C8.49186 50.1125 8.7421 50.2881 9.05034 50.4041C9.36189 50.5201 9.7099 50.5781 10.0944 50.5781C10.4954 50.5781 10.8467 50.5185 11.1483 50.3991C11.4533 50.2765 11.6919 50.1075 11.8643 49.892C12.0366 49.6733 12.1244 49.4181 12.1278 49.1264C12.1244 48.8613 12.0466 48.6425 11.8941 48.4702C11.7416 48.2945 11.5278 48.1487 11.2528 48.0327C10.981 47.9134 10.6628 47.8073 10.2982 47.7145L9.13983 47.4162C8.30128 47.2008 7.63841 46.8743 7.15119 46.4368C6.66729 45.996 6.42534 45.411 6.42534 44.6818C6.42534 44.0819 6.58774 43.5566 6.91255 43.1058C7.24068 42.6551 7.68646 42.3054 8.24991 42.0568C8.81336 41.8049 9.45138 41.679 10.164 41.679C10.8865 41.679 11.5196 41.8049 12.0631 42.0568C12.61 42.3054 13.0392 42.6518 13.3508 43.0959C13.6623 43.5367 13.8231 44.0438 13.833 44.6172H12.0582Z" fill="black"/>
<path d="M18.9177 52.1491C18.1521 52.1491 17.4909 51.9901 16.934 51.6719C16.3805 51.3504 15.9546 50.8963 15.6563 50.3097C15.358 49.7197 15.2089 49.0253 15.2089 48.2266C15.2089 47.4411 15.358 46.7517 15.6563 46.1584C15.9579 45.5618 16.3789 45.0978 16.9191 44.7663C17.4594 44.4316 18.0941 44.2642 18.8232 44.2642C19.2939 44.2642 19.738 44.3404 20.1556 44.4929C20.5766 44.642 20.9478 44.8741 21.2693 45.1889C21.5941 45.5038 21.8493 45.9048 22.0349 46.392C22.2205 46.8759 22.3133 47.4527 22.3133 48.1222V48.674H16.994L16.9974 47.4609H20.5882C20.5848 47.1162 20.5103 46.8097 20.3644 46.5412C20.2186 46.2694 20.0148 46.0556 19.7529 45.8999C19.4944 45.7441 19.1928 45.6662 18.8481 45.6662C18.4802 45.6662 18.157 45.7557 17.8786 45.9347C17.6002 46.1103 17.3831 46.3423 17.2274 46.6307C17.0749 46.9157 16.997 47.2289 16.9937 47.5703V48.6293C16.9937 49.0734 17.0749 49.4545 17.2373 49.7727C17.3997 50.0876 17.6267 50.3295 17.9184 50.4986C18.2101 50.6643 18.5515 50.7472 18.9426 50.7472C19.2044 50.7472 19.4414 50.7107 19.6535 50.6378C19.8656 50.5616 20.0496 50.4505 20.2053 50.3047C20.3611 50.1589 20.4788 49.9782 20.5583 49.7628L22.2387 49.9517C22.1327 50.3958 21.9305 50.7836 21.6322 51.1151C21.3372 51.4432 20.9594 51.6984 20.4987 51.8807C20.038 52.0597 19.511 52.1491 18.9177 52.1491Z" fill="black"/>
<path d="M27.6491 44.3636V45.7557H26.1427L24.343 44.3636V45.7557H23.2591V44.3636H24.343L26.1427 45.7557V44.3636H27.6491ZM24.343 42.5341H26.1427V49.7031C26.1427 49.9451 26.1791 50.1307 26.252 50.2599C26.3283 50.3859 26.4277 50.4721 26.5503 50.5185C26.673 50.5649 26.8089 50.5881 26.958 50.5881C27.0707 50.5881 27.1734 50.5798 27.2662 50.5632C27.3624 50.5466 27.4353 50.5317 27.485 50.5185L27.7883 51.9254C27.6921 51.9586 27.5546 51.995 27.3756 52.0348C27.2 52.0746 26.9845 52.0978 26.7293 52.1044C26.2786 52.1177 25.8725 52.0497 25.5113 51.9006C25.15 51.7481 24.8633 51.5128 24.6512 51.1946C24.4424 50.8764 24.3396 50.4787 24.343 50.0014V42.5341Z" fill="black"/>
<path d="M32.9674 44.3636V45.7557H31.461V44.3636L29.6613 45.7557H28.5775V44.3636H30.5889H29.6613V45.7557L31.461 44.3636H32.9674ZM29.6613 42.5341H31.461V49.7031C31.461 49.9451 31.4975 50.1307 31.5704 50.2599C31.6466 50.3859 31.7461 50.4721 31.8687 50.5185C31.9913 50.5649 32.1272 50.5881 32.2764 50.5881C32.3891 50.5881 32.4918 50.5798 32.5846 50.5632C32.6807 50.5466 32.7536 50.5317 32.8034 50.5185L33.1066 51.9254C33.0105 51.9586 32.873 51.995 32.694 52.0348C32.5183 52.0746 32.3029 52.0978 32.0477 52.1044C31.5969 52.1177 31.1909 52.0497 30.8296 51.9006C30.4684 51.7481 30.1817 51.5128 29.9695 51.1946C29.7607 50.8764 29.658 50.4787 29.6613 50.0014V42.5341Z" fill="black"/>
<path d="M34.4726 52V44.3636H36.2723V52H34.4726ZM35.3774 43.2798C35.0924 43.2798 34.8471 43.1854 34.6416 42.9964C34.4361 42.8042 34.3334 42.5739 34.3334 42.3054C34.3334 42.0336 34.4361 41.8033 34.6416 41.6143C34.8471 41.4221 35.0924 41.326 35.3774 41.326C35.6657 41.326 35.911 41.4221 36.1132 41.6143C36.3187 41.8033 36.4214 42.0336 36.4214 42.3054C36.4214 42.5739 36.3187 42.8042 36.1132 42.9964C35.911 43.1854 35.6657 43.2798 35.3774 43.2798Z" fill="black"/>
<path d="M39.9227 47.5256V52H38.123V44.3636H39.8431V45.6612H39.9326C40.1083 45.2337 40.3883 44.8939 40.7728 44.642C41.1606 44.3902 41.6395 44.2642 42.2096 44.2642C42.7366 44.2642 43.1956 44.3769 43.5867 44.6023C43.9811 44.8277 44.2861 45.1541 44.5015 45.5817C44.7203 46.0092 44.828 46.5279 44.8247 47.1378V52H43.0249V47.4162C43.0249 46.9058 42.8924 46.5064 42.6272 46.218C42.3654 45.9297 42.0025 45.7855 41.5384 45.7855C41.2236 45.7855 40.9435 45.8551 40.6982 45.9943C40.4563 46.1302 40.2657 46.3274 40.1265 46.5859C39.9906 46.8445 39.9227 47.1577 39.9227 47.5256Z" fill="black"/>
<path d="M49.9752 55.0227C49.3289 55.0227 48.7738 54.9349 48.3097 54.7592C47.8457 54.5869 47.4729 54.3549 47.1911 54.0632C46.9094 53.7715 46.7139 53.4484 46.6045 53.0938L48.2252 52.701C48.2981 52.8501 48.4042 52.9976 48.5434 53.1435C48.6826 53.2926 48.8699 53.4152 49.1052 53.5114C49.3438 53.6108 49.6438 53.6605 50.0051 53.6605C50.5155 53.6605 50.9381 53.5362 51.2728 53.2876C51.6076 53.0424 51.7749 52.638 51.7749 52.0746V50.6278H51.6855C51.5927 50.8134 51.4568 51.004 51.2778 51.1996C51.1021 51.3951 50.8685 51.5592 50.5768 51.6918C50.2884 51.8243 49.9255 51.8906 49.488 51.8906C48.9014 51.8906 48.3694 51.7531 47.8921 51.478C47.4182 51.1996 47.0403 50.7853 46.7586 50.2351C46.4802 49.6816 46.341 48.9889 46.341 48.157C46.341 47.3184 46.4802 46.6108 46.7586 46.0341C47.0403 45.4541 47.4198 45.0149 47.8971 44.7166C48.3744 44.415 48.9063 44.2642 49.493 44.2642C49.9404 44.2642 50.3083 44.3404 50.5967 44.4929C50.8883 44.642 51.1204 44.8227 51.2927 45.0348C51.4651 45.2436 51.596 45.4408 51.6855 45.6264H51.7849V44.3636H53.5597V52.1243C53.5597 52.7772 53.404 53.3175 53.0924 53.745C52.7809 54.1726 52.355 54.4924 51.8147 54.7045C51.2745 54.9167 50.6613 55.0227 49.9752 55.0227ZM49.9901 50.4787C50.3713 50.4787 50.6961 50.3859 50.9646 50.2003C51.233 50.0147 51.4369 49.7479 51.5761 49.3999C51.7153 49.0518 51.7849 48.6342 51.7849 48.147C51.7849 47.6664 51.7153 47.2455 51.5761 46.8842C51.4402 46.523 51.238 46.2429 50.9695 46.044C50.7044 45.8419 50.3779 45.7408 49.9901 45.7408C49.5891 45.7408 49.2544 45.8452 48.9859 46.054C48.7174 46.2628 48.5152 46.5495 48.3793 46.9141C48.2435 47.2753 48.1755 47.6863 48.1755 48.147C48.1755 48.6143 48.2435 49.0237 48.3793 49.375C48.5186 49.723 48.7224 49.9948 48.9909 50.1903C49.2626 50.3826 49.5957 50.4787 49.9901 50.4787Z" fill="black"/>
</svg>
